<mxfile host="app.diagrams.net" modified="2023-11-09T22:19:38.199Z" agent="Mozilla/5.0 (Macintosh; Intel Mac OS X 10_15_7) AppleWebKit/537.36 (KHTML, like Gecko) Chrome/118.0.0.0 Safari/537.36" etag="RUN9cM4zGlxzXKA7bxLA" version="22.1.0" type="device">
  <diagram name="Page-1" id="B4cEmq4au4Zasy2xhs34">
    <mxGraphModel dx="984" dy="659" grid="1" gridSize="10" guides="1" tooltips="1" connect="1" arrows="1" fold="1" page="1" pageScale="1" pageWidth="850" pageHeight="1100" math="0" shadow="0">
      <root>
        <mxCell id="0" />
        <mxCell id="1" parent="0" />
        <mxCell id="Sm6Fz6j3rFcGg3TL--3Z-1" value="&lt;u style=&quot;font-weight: bold;&quot;&gt;ACTIVITY DIAGRAM&lt;/u&gt;&lt;br&gt;- Shows flow of a process from start to end&lt;br&gt;- Can have fork/join&lt;br&gt;- Useful for multithreaded/async programming" style="rounded=0;whiteSpace=wrap;html=1;" vertex="1" parent="1">
          <mxGeometry x="40" y="40" width="270" height="200" as="geometry" />
        </mxCell>
        <mxCell id="Sm6Fz6j3rFcGg3TL--3Z-2" value="" style="shape=image;verticalLabelPosition=bottom;labelBackgroundColor=default;verticalAlign=top;aspect=fixed;imageAspect=0;image=https://online.visual-paradigm.com/repository/images/53b04264-831d-4940-a193-da0ac2c22706/activity-diagram-design/uml-activity-diagram.png;" vertex="1" parent="1">
          <mxGeometry x="30" y="300" width="480.52" height="540" as="geometry" />
        </mxCell>
      </root>
    </mxGraphModel>
  </diagram>
</mxfile>
